# xmcd
# 
# Track frame offsets:
#   150
#   13560
#   37401
#   54212
#   74912
# 
# Disc length: 1199 seconds
# 
# Revision: 0
# Processed by: cddbd v1.5.2PL0 Copyright (c) Steve Scherf et al.
# Submitted via: Synapstar 1.0 
# 
DISCID=4504ad05
DTITLE=Various Artist - Selectrack
DYEAR=1900
DGENRE=Country
TTITLE0=Kenny Chesney - Everybody wants to go to heaven
TTITLE1=Alan Jackson - Goodtime
TTITLE2=Kenny Chesney - The Tinman
TTITLE3=Michael Buble - Me and Mrs Jones
TTITLE4=Katy Perry - I kissed A girl
EXTD=MediaType: Karaoke CD+G Producer: Other
EXTT0=
EXTT1=
EXTT2=
EXTT3=
EXTT4=
PLAYORDER=
